<svg width="360" height="303" viewBox="0 0 360 303" fill="none" xmlns="http://www.w3.org/2000/svg">
<rect x="0.5" y="0.5" width="359" height="301.577" stroke="white"/>
<path d="M180 23.0171C172.283 22.8266 164.607 24.2308 157.424 27.147C150.241 30.0631 143.695 34.4324 138.172 39.9978C132.649 45.5632 128.26 52.2123 125.264 59.554C122.267 66.8957 120.723 74.7817 120.723 82.7481C120.723 90.7146 122.267 98.6006 125.264 105.942C128.26 113.284 132.649 119.933 138.172 125.498C143.695 131.064 150.241 135.433 157.424 138.349C164.607 141.265 172.283 142.67 180 142.479C187.717 142.67 195.393 141.265 202.576 138.349C209.759 135.433 216.305 131.064 221.828 125.498C227.351 119.933 231.74 113.284 234.736 105.942C237.733 98.6006 239.277 90.7146 239.277 82.7481C239.277 74.7817 237.733 66.8957 234.736 59.554C231.74 52.2123 227.351 45.5632 221.828 39.9978C216.305 34.4324 209.759 30.0631 202.576 27.147C195.393 24.2308 187.717 22.8266 180 23.0171ZM146.909 176.597C131.551 176.597 116.821 182.893 105.961 194.101C95.1011 205.31 89 220.511 89 236.362V279H271V236.362C271 220.511 264.899 205.31 254.039 194.101C243.179 182.893 228.449 176.597 213.091 176.597H146.909Z" fill="#F8F8F8"/>
</svg>
